# xmcd
#
# Track frame offsets: 
#        150
#        18650
#        33936
#        47349
#        53617
#        58563
#        71950
#        89183
#        105167
#        124606
#        143726
#        160194
#        162708
#        182253
#        201665
#        224061
#        242548
#        268870
#
# Disc length: 3858 seconds
#
# Revision: 4
# Processed by: cddbd v1.5.2PL0 Copyright (c) Steve Scherf et al.
# Submitted via: ExactAudioCopyFreeDBPlugin 1.0
#
DISCID=080f1012
DTITLE=The Moody Blues - To Our Children's Children's Children
DYEAR=1969
DGENRE=Symphonic Rock
TTITLE0=Higher And Higher
TTITLE1=The Eyes Of A Child - Part 1
TTITLE2=Floating
TTITLE3=The Eyes Of A Child - Part 2
TTITLE4=I Never Thought I'd Live To Be A Hundred
TTITLE5=Beyond
TTITLE6=Out And In
TTITLE7=Gypsy
TTITLE8=Eternity Road
TTITLE9=Candle Of Life
TTITLE10=Sun Is Still Shining
TTITLE11=I Never Thought I'd Live To Be A Million
TTITLE12=Watching And Waiting
TTITLE13=Gypsy (Alternate Version)
TTITLE14=Candle Of Life (Alternate Version)
TTITLE15=Sun Is Still Shining (Extended Version)
TTITLE16=Have You Heard, The Voyage, Have You Heard (BBC Live)
TTITLE17=Legend Of A Mind (BBC Live)
EXTD=Digitally remastered YEAR: 1969
EXTT0=
EXTT1=
EXTT2=
EXTT3=
EXTT4=
EXTT5=
EXTT6=
EXTT7=
EXTT8=
EXTT9=
EXTT10=
EXTT11=
EXTT12=
EXTT13=
EXTT14=
EXTT15=
EXTT16=
EXTT17=
PLAYORDER=
